<?xml version="1.0" encoding="utf-8"?>
<svg xmlns="http://www.w3.org/2000/svg" xmlns:xlink="http://www.w3.org/1999/xlink" style="margin: auto; background: none; display: block; shape-rendering: auto;" width="150px" height="150px" viewBox="0 0 100 100" preserveAspectRatio="xMidYMid">
<g transform="translate(50 50)">
<g>
<animateTransform attributeName="transform" type="rotate" values="0;40" keyTimes="0;1" dur="0.15337423312883436s" repeatCount="indefinite"></animateTransform><path d="M13.811227316933131 -25.5 L25.81122731693313 -25.5 L25.81122731693313 25.5 L13.811227316933131 25.5 A29 29 0 0 1 26.97109798579641 -10.656447505645058 L26.97109798579641 -10.656447505645058 L36.16363130322414 -2.9429961894065855 L3.381463209210639 36.1252704096613 L-5.8110701082170975 28.41181909342282 A29 29 0 0 1 27.510892156740475 9.17337520982302 L27.510892156740475 9.17337520982302 L29.594670288743643 20.991068245969515 L-20.630525114878967 29.847125306982967 L-22.714303246882135 18.029432270836473 A29 29 0 0 1 15.178034138036624 24.71087371390568 L15.178034138036624 24.71087371390568 L9.178034138036626 35.10317855931895 L-34.98926145496975 9.603178559318955 L-28.989261454969753 -0.7891262860943092 A29 29 0 0 1 -4.256794738914267 28.685879776481528 L-4.256794738914267 28.685879776481528 L-15.533106188345165 32.79012149638956 L-32.97613349795428 -15.134202163691771 L-21.69982204852338 -19.2384438835998 A29 29 0 0 1 -21.699822048523377 19.238443883599807 L-21.699822048523377 19.238443883599807 L-32.97613349795428 15.134202163691782 L-15.533106188345176 -32.79012149638955 L-4.256794738914274 -28.685879776481528 A29 29 0 0 1 -28.989261454969753 0.7891262860943292 L-28.989261454969753 0.7891262860943292 L-34.989261454969764 -9.60317855931893 L9.17803413803659 -35.10317855931896 L15.1780341380366 -24.7108737139057 A29 29 0 0 1 -22.71430324688215 -18.02943227083646 L-22.71430324688215 -18.02943227083646 L-20.63052511487899 -29.847125306982957 L29.594670288743636 -20.991068245969515 L27.510892156740475 -9.17337520982302 A29 29 0 0 1 -5.811070108217091 -28.411819093422825 L-5.811070108217091 -28.411819093422825 L3.381463209210642 -36.1252704096613 L36.16363130322415 2.9429961894065633 L26.97109798579642 10.656447505645037 A29 29 0 0 1 13.811227316933113 -25.50000000000001 M0 -18A18 18 0 1 0 0 18 A18 18 0 1 0 0 -18" fill="#10bbdd"></path></g></g>
<!-- [ldio] generated by https://loading.io/ --></svg>